<svg xmlns="http://www.w3.org/2000/svg" viewBox="0 0 880 520" fill="none">
  <style>
    text { font-family: -apple-system, BlinkMacSystemFont, 'Segoe UI', Helvetica, Arial, sans-serif; }
    .title { font-size: 11px; font-weight: 600; fill: #8b949e; letter-spacing: 0.05em; text-transform: uppercase; }
    .label { font-size: 13px; font-weight: 600; fill: #e6edf3; }
    .sublabel { font-size: 11px; fill: #8b949e; }
    .edge-label { font-size: 10px; fill: #8b949e; }
    .code { font-family: 'SF Mono', 'Fira Code', 'Fira Mono', monospace; font-size: 10px; fill: #7ee787; }
  </style>

  <!-- Background -->
  <rect width="880" height="520" rx="12" fill="#0d1117"/>

  <!-- === LAYER 1: Terminal === -->
  <rect x="24" y="20" width="832" height="90" rx="8" fill="#161b22" stroke="#30363d" stroke-width="1"/>
  <text x="44" y="40" class="title">Terminal</text>

  <rect x="44" y="52" width="150" height="44" rx="6" fill="#1f6feb" fill-opacity="0.15" stroke="#1f6feb" stroke-width="1.5"/>
  <text x="119" y="71" class="label" text-anchor="middle">claude</text>
  <text x="119" y="86" class="sublabel" text-anchor="middle">native Opus</text>

  <rect x="224" y="52" width="200" height="44" rx="6" fill="#da3633" fill-opacity="0.12" stroke="#da3633" stroke-width="1.5"/>
  <text x="324" y="71" class="label" text-anchor="middle">claude-ds</text>
  <text x="324" y="86" class="sublabel" text-anchor="middle">V4-Pro main + Flash sub</text>

  <rect x="454" y="52" width="200" height="44" rx="6" fill="#f0883e" fill-opacity="0.12" stroke="#f0883e" stroke-width="1.5"/>
  <text x="554" y="71" class="label" text-anchor="middle">claude-ds-flash</text>
  <text x="554" y="86" class="sublabel" text-anchor="middle">Flash all tiers</text>

  <!-- === Arrow down === -->
  <line x1="340" y1="110" x2="340" y2="140" stroke="#30363d" stroke-width="1.5" marker-end="url(#arrow)"/>

  <!-- === LAYER 2: Claude Code Harness === -->
  <rect x="24" y="140" width="832" height="220" rx="8" fill="#161b22" stroke="#30363d" stroke-width="1" stroke-dasharray="6 3"/>
  <text x="44" y="162" class="title">Claude Code Harness (unmodified)</text>

  <!-- Env vars -->
  <rect x="44" y="178" width="240" height="60" rx="6" fill="#238636" fill-opacity="0.1" stroke="#238636" stroke-width="1"/>
  <text x="164" y="202" class="label" text-anchor="middle">Environment Variables</text>
  <text x="164" y="218" class="sublabel" text-anchor="middle">7 model routing + 3 behavior</text>

  <!-- Hook -->
  <rect x="314" y="178" width="240" height="60" rx="6" fill="#da3633" fill-opacity="0.1" stroke="#da3633" stroke-width="1"/>
  <text x="434" y="202" class="label" text-anchor="middle">PreToolUse Hook</text>
  <text x="434" y="218" class="code" text-anchor="middle">vision-guard.sh</text>

  <!-- MCP -->
  <rect x="584" y="178" width="252" height="60" rx="6" fill="#8b5cf6" fill-opacity="0.12" stroke="#8b5cf6" stroke-width="1"/>
  <text x="710" y="202" class="label" text-anchor="middle">Vision MCP Server</text>
  <text x="710" y="218" class="code" text-anchor="middle">see_image / see_clipboard</text>

  <!-- Hook -> MCP arrow -->
  <line x1="554" y1="208" x2="584" y2="208" stroke="#da3633" stroke-width="1" stroke-dasharray="4 2" marker-end="url(#arrow-red)"/>
  <text x="569" y="198" class="edge-label" text-anchor="middle" transform="rotate(-90, 569, 198)">block</text>

  <!-- CLAUDE.md -->
  <rect x="44" y="260" width="240" height="48" rx="6" fill="#1f6feb" fill-opacity="0.08" stroke="#30363d" stroke-width="1"/>
  <text x="164" y="282" class="label" text-anchor="middle">CLAUDE.md</text>
  <text x="164" y="296" class="sublabel" text-anchor="middle">soft guidance for paste failures</text>

  <!-- Connection labels -->
  <rect x="314" y="272" width="240" height="34" rx="4" fill="none" stroke="#30363d" stroke-width="1" stroke-dasharray="3 2"/>
  <text x="434" y="294" class="sublabel" text-anchor="middle">100% hook enforcement > ~70% CLAUDE.md</text>

  <!-- === Arrows down === -->
  <line x1="164" y1="360" x2="164" y2="390" stroke="#238636" stroke-width="1.5" marker-end="url(#arrow-green)"/>
  <text x="106" y="378" class="edge-label">default</text>

  <line x1="340" y1="360" x2="340" y2="390" stroke="#238636" stroke-width="1.5" marker-end="url(#arrow-green)"/>
  <text x="346" y="378" class="code">ANTHROPIC_BASE_URL</text>

  <line x1="710" y1="238" x2="710" y2="390" stroke="#8b5cf6" stroke-width="1.5" marker-end="url(#arrow-purple)"/>
  <text x="716" y="320" class="edge-label">image analysis</text>

  <!-- === LAYER 3: Backends === -->
  <rect x="24" y="390" width="832" height="110" rx="8" fill="#161b22" stroke="#30363d" stroke-width="1"/>
  <text x="44" y="412" class="title">Backends</text>

  <rect x="44" y="424" width="230" height="56" rx="6" fill="#1f6feb" fill-opacity="0.1" stroke="#1f6feb" stroke-width="1"/>
  <text x="159" y="448" class="label" text-anchor="middle">Anthropic API</text>
  <text x="159" y="466" class="code" text-anchor="middle">api.anthropic.com</text>

  <rect x="304" y="424" width="230" height="56" rx="6" fill="#da3633" fill-opacity="0.1" stroke="#da3633" stroke-width="1"/>
  <text x="419" y="448" class="label" text-anchor="middle">DeepSeek API</text>
  <text x="419" y="466" class="code" text-anchor="middle">api.deepseek.com/anthropic</text>

  <rect x="564" y="424" width="272" height="56" rx="6" fill="#8b5cf6" fill-opacity="0.12" stroke="#8b5cf6" stroke-width="1"/>
  <text x="700" y="448" class="label" text-anchor="middle">Vision API</text>
  <text x="700" y="466" class="code" text-anchor="middle">any OpenAI-compatible</text>

  <!-- Arrow markers -->
  <defs>
    <marker id="arrow" markerWidth="8" markerHeight="6" refX="8" refY="3" orient="auto">
      <path d="M0,0 L8,3 L0,6" fill="#30363d"/>
    </marker>
    <marker id="arrow-green" markerWidth="8" markerHeight="6" refX="8" refY="3" orient="auto">
      <path d="M0,0 L8,3 L0,6" fill="#238636"/>
    </marker>
    <marker id="arrow-red" markerWidth="8" markerHeight="6" refX="8" refY="3" orient="auto">
      <path d="M0,0 L8,3 L0,6" fill="#da3633"/>
    </marker>
    <marker id="arrow-purple" markerWidth="8" markerHeight="6" refX="8" refY="3" orient="auto">
      <path d="M0,0 L8,3 L0,6" fill="#8b5cf6"/>
    </marker>
  </defs>
</svg>
