<svg xmlns="http://www.w3.org/2000/svg" fill="none" viewBox="0 0 880 560"><style>text{font-family:-apple-system,BlinkMacSystemFont,&apos;Segoe UI&apos;,Helvetica,Arial,sans-serif}.label,.title{font-weight:600}.title{font-size:11px;fill:#8b949e;letter-spacing:.05em;text-transform:uppercase}.label{font-size:13px;fill:#e6edf3}.sublabel{font-size:11px}.edge-label,.sublabel{fill:#8b949e}.code,.edge-label,.note{font-size:10px}.code{font-family:&apos;SF Mono&apos;,&apos;Fira Code&apos;,&apos;Fira Mono&apos;,monospace;fill:#7ee787}.note{fill:#8b949e}</style><rect width="880" height="560" fill="#0d1117" rx="12"/><rect width="832" height="94" x="24" y="20" fill="#161b22" stroke="#30363d" stroke-width="1" rx="8"/><text x="44" y="42" class="title">Terminal</text><rect width="170" height="46" x="44" y="54" fill="#1f6feb" fill-opacity=".15" stroke="#1f6feb" stroke-width="1.5" rx="6"/><text x="129" y="74" class="label" text-anchor="middle">claude</text><text x="129" y="90" class="sublabel" text-anchor="middle">native Opus</text><rect width="220" height="46" x="244" y="54" fill="#da3633" fill-opacity=".12" stroke="#da3633" stroke-width="1.5" rx="6"/><text x="354" y="74" class="label" text-anchor="middle">claude-ds</text><text x="354" y="90" class="sublabel" text-anchor="middle">V4-Pro main + Flash sub</text><rect width="220" height="46" x="494" y="54" fill="#f0883e" fill-opacity=".12" stroke="#f0883e" stroke-width="1.5" rx="6"/><text x="604" y="74" class="label" text-anchor="middle">claude-ds-flash</text><text x="604" y="90" class="sublabel" text-anchor="middle">Flash all tiers</text><line x1="354" x2="354" y1="114" y2="148" stroke="#30363d" stroke-width="1.5" marker-end="url(#arrow)"/><rect width="832" height="240" x="24" y="148" fill="#161b22" stroke="#30363d" stroke-dasharray="6 3" stroke-width="1" rx="8"/><text x="44" y="172" class="title">Claude Code Harness (unmodified)</text><rect width="240" height="60" x="44" y="188" fill="#238636" fill-opacity=".1" stroke="#238636" stroke-width="1" rx="6"/><text x="164" y="214" class="label" text-anchor="middle">Environment Variables</text><text x="164" y="232" class="sublabel" text-anchor="middle">7 model routing + 3 behavior</text><rect width="230" height="60" x="316" y="188" fill="#da3633" fill-opacity=".1" stroke="#da3633" stroke-width="1" rx="6"/><text x="431" y="214" class="label" text-anchor="middle">PreToolUse Hook</text><text x="431" y="232" class="code" text-anchor="middle">vision-guard.sh</text><rect width="236" height="60" x="600" y="188" fill="#8b5cf6" fill-opacity=".12" stroke="#8b5cf6" stroke-width="1" rx="6"/><text x="718" y="214" class="label" text-anchor="middle">Vision MCP Server</text><text x="718" y="232" class="code" text-anchor="middle">see_image / see_clipboard</text><line x1="546" x2="596" y1="218" y2="218" stroke="#da3633" stroke-dasharray="4 2" stroke-width="1.5" marker-end="url(#arrow-red)"/><text x="571" y="210" fill="#f85149" class="edge-label" text-anchor="middle">block</text><rect width="240" height="52" x="44" y="272" fill="#1f6feb" fill-opacity=".08" stroke="#30363d" stroke-width="1" rx="6"/><text x="164" y="296" class="label" text-anchor="middle">CLAUDE.md</text><text x="164" y="312" class="sublabel" text-anchor="middle">soft guidance for paste failures</text><rect width="288" height="38" x="316" y="278" fill="none" stroke="#30363d" stroke-dasharray="3 2" stroke-width="1" rx="6"/><text x="460" y="302" class="note" text-anchor="middle">deterministic hook &gt; probabilistic CLAUDE.md</text><line x1="120" x2="120" y1="248" y2="422" stroke="#238636" stroke-width="1.5" marker-end="url(#arrow-green)"/><text x="78" y="406" class="edge-label">default</text><line x1="240" x2="400" y1="248" y2="422" stroke="#238636" stroke-width="1.5" marker-end="url(#arrow-green)"/><text x="340" y="400" class="code">ANTHROPIC_BASE_URL</text><line x1="718" x2="718" y1="248" y2="422" stroke="#8b5cf6" stroke-width="1.5" marker-end="url(#arrow-purple)"/><text x="736" y="370" class="edge-label">image</text><text x="736" y="382" class="edge-label">analysis</text><rect width="832" height="118" x="24" y="422" fill="#161b22" stroke="#30363d" stroke-width="1" rx="8"/><text x="44" y="446" class="title">Backends</text><rect width="230" height="60" x="44" y="460" fill="#1f6feb" fill-opacity=".1" stroke="#1f6feb" stroke-width="1" rx="6"/><text x="159" y="486" class="label" text-anchor="middle">Anthropic API</text><text x="159" y="506" class="code" text-anchor="middle">api.anthropic.com</text><rect width="256" height="60" x="304" y="460" fill="#da3633" fill-opacity=".1" stroke="#da3633" stroke-width="1" rx="6"/><text x="432" y="486" class="label" text-anchor="middle">DeepSeek API</text><text x="432" y="506" class="code" text-anchor="middle">api.deepseek.com/anthropic</text><rect width="246" height="60" x="590" y="460" fill="#8b5cf6" fill-opacity=".12" stroke="#8b5cf6" stroke-width="1" rx="6"/><text x="713" y="486" class="label" text-anchor="middle">Vision API</text><text x="713" y="506" class="code" text-anchor="middle">any OpenAI-compatible</text><defs><marker id="arrow" markerHeight="6" markerWidth="8" orient="auto" refX="8" refY="3"><path fill="#30363d" d="M0,0 L8,3 L0,6"/></marker><marker id="arrow-green" markerHeight="6" markerWidth="8" orient="auto" refX="8" refY="3"><path fill="#238636" d="M0,0 L8,3 L0,6"/></marker><marker id="arrow-red" markerHeight="6" markerWidth="8" orient="auto" refX="8" refY="3"><path fill="#da3633" d="M0,0 L8,3 L0,6"/></marker><marker id="arrow-purple" markerHeight="6" markerWidth="8" orient="auto" refX="8" refY="3"><path fill="#8b5cf6" d="M0,0 L8,3 L0,6"/></marker></defs></svg>