<svg xmlns="http://www.w3.org/2000/svg" viewBox="0 0 880 560" fill="none">
  <style>
    text { font-family: -apple-system, BlinkMacSystemFont, 'Segoe UI', Helvetica, Arial, sans-serif; }
    .title { font-size: 11px; font-weight: 600; fill: #8b949e; letter-spacing: 0.05em; text-transform: uppercase; }
    .label { font-size: 13px; font-weight: 600; fill: #e6edf3; }
    .sublabel { font-size: 11px; fill: #8b949e; }
    .edge-label { font-size: 10px; fill: #8b949e; }
    .code { font-family: 'SF Mono', 'Fira Code', 'Fira Mono', monospace; font-size: 10px; fill: #7ee787; }
    .note { font-size: 10px; fill: #8b949e; }
  </style>

  <!-- Background -->
  <rect width="880" height="560" rx="12" fill="#0d1117"/>

  <!-- ============ LAYER 1: Terminal ============ -->
  <rect x="24" y="20" width="832" height="94" rx="8" fill="#161b22" stroke="#30363d" stroke-width="1"/>
  <text x="44" y="42" class="title">Terminal</text>

  <rect x="44" y="54" width="170" height="46" rx="6" fill="#1f6feb" fill-opacity="0.15" stroke="#1f6feb" stroke-width="1.5"/>
  <text x="129" y="74" class="label" text-anchor="middle">claude</text>
  <text x="129" y="90" class="sublabel" text-anchor="middle">native Opus</text>

  <rect x="244" y="54" width="220" height="46" rx="6" fill="#da3633" fill-opacity="0.12" stroke="#da3633" stroke-width="1.5"/>
  <text x="354" y="74" class="label" text-anchor="middle">claude-ds</text>
  <text x="354" y="90" class="sublabel" text-anchor="middle">V4-Pro main + Flash sub</text>

  <rect x="494" y="54" width="220" height="46" rx="6" fill="#f0883e" fill-opacity="0.12" stroke="#f0883e" stroke-width="1.5"/>
  <text x="604" y="74" class="label" text-anchor="middle">claude-ds-flash</text>
  <text x="604" y="90" class="sublabel" text-anchor="middle">Flash all tiers</text>

  <!-- Arrow: Terminal -> Harness -->
  <line x1="354" y1="114" x2="354" y2="148" stroke="#30363d" stroke-width="1.5" marker-end="url(#arrow)"/>

  <!-- ============ LAYER 2: Claude Code Harness ============ -->
  <rect x="24" y="148" width="832" height="240" rx="8" fill="#161b22" stroke="#30363d" stroke-width="1" stroke-dasharray="6 3"/>
  <text x="44" y="172" class="title">Claude Code Harness (unmodified)</text>

  <!-- Env vars box -->
  <rect x="44" y="188" width="240" height="60" rx="6" fill="#238636" fill-opacity="0.1" stroke="#238636" stroke-width="1"/>
  <text x="164" y="214" class="label" text-anchor="middle">Environment Variables</text>
  <text x="164" y="232" class="sublabel" text-anchor="middle">7 model routing + 3 behavior</text>

  <!-- Hook box -->
  <rect x="316" y="188" width="230" height="60" rx="6" fill="#da3633" fill-opacity="0.1" stroke="#da3633" stroke-width="1"/>
  <text x="431" y="214" class="label" text-anchor="middle">PreToolUse Hook</text>
  <text x="431" y="232" class="code" text-anchor="middle">vision-guard.sh</text>

  <!-- MCP box -->
  <rect x="600" y="188" width="236" height="60" rx="6" fill="#8b5cf6" fill-opacity="0.12" stroke="#8b5cf6" stroke-width="1"/>
  <text x="718" y="214" class="label" text-anchor="middle">Vision MCP Server</text>
  <text x="718" y="232" class="code" text-anchor="middle">see_image / see_clipboard</text>

  <!-- Hook -> MCP horizontal arrow -->
  <line x1="546" y1="218" x2="596" y2="218" stroke="#da3633" stroke-width="1.5" stroke-dasharray="4 2" marker-end="url(#arrow-red)"/>
  <!-- "block" label ABOVE the arrow, horizontal -->
  <text x="571" y="210" class="edge-label" text-anchor="middle" fill="#f85149">block</text>

  <!-- CLAUDE.md box -->
  <rect x="44" y="272" width="240" height="52" rx="6" fill="#1f6feb" fill-opacity="0.08" stroke="#30363d" stroke-width="1"/>
  <text x="164" y="296" class="label" text-anchor="middle">CLAUDE.md</text>
  <text x="164" y="312" class="sublabel" text-anchor="middle">soft guidance for paste failures</text>

  <!-- Enforcement comparison box (wider with padding) -->
  <rect x="316" y="278" width="288" height="38" rx="6" fill="none" stroke="#30363d" stroke-width="1" stroke-dasharray="3 2"/>
  <text x="460" y="302" class="note" text-anchor="middle">deterministic hook  >  probabilistic CLAUDE.md</text>

  <!-- ============ Arrows: Harness -> Backends ============ -->

  <!-- ENV -> Anthropic (left arrow, from ENV box bottom) -->
  <line x1="120" y1="248" x2="120" y2="422" stroke="#238636" stroke-width="1.5" marker-end="url(#arrow-green)"/>
  <text x="78" y="406" class="edge-label">default</text>

  <!-- ENV -> DeepSeek (middle arrow, from ENV box bottom-right area) -->
  <line x1="240" y1="248" x2="400" y2="422" stroke="#238636" stroke-width="1.5" marker-end="url(#arrow-green)"/>
  <text x="340" y="400" class="code">ANTHROPIC_BASE_URL</text>

  <!-- MCP -> Vision API (right arrow, from MCP box bottom) -->
  <line x1="718" y1="248" x2="718" y2="422" stroke="#8b5cf6" stroke-width="1.5" marker-end="url(#arrow-purple)"/>
  <text x="736" y="370" class="edge-label">image</text>
  <text x="736" y="382" class="edge-label">analysis</text>

  <!-- ============ LAYER 3: Backends ============ -->
  <rect x="24" y="422" width="832" height="118" rx="8" fill="#161b22" stroke="#30363d" stroke-width="1"/>
  <text x="44" y="446" class="title">Backends</text>

  <rect x="44" y="460" width="230" height="60" rx="6" fill="#1f6feb" fill-opacity="0.1" stroke="#1f6feb" stroke-width="1"/>
  <text x="159" y="486" class="label" text-anchor="middle">Anthropic API</text>
  <text x="159" y="506" class="code" text-anchor="middle">api.anthropic.com</text>

  <rect x="304" y="460" width="256" height="60" rx="6" fill="#da3633" fill-opacity="0.1" stroke="#da3633" stroke-width="1"/>
  <text x="432" y="486" class="label" text-anchor="middle">DeepSeek API</text>
  <text x="432" y="506" class="code" text-anchor="middle">api.deepseek.com/anthropic</text>

  <rect x="590" y="460" width="246" height="60" rx="6" fill="#8b5cf6" fill-opacity="0.12" stroke="#8b5cf6" stroke-width="1"/>
  <text x="713" y="486" class="label" text-anchor="middle">Vision API</text>
  <text x="713" y="506" class="code" text-anchor="middle">any OpenAI-compatible</text>

  <!-- Arrow markers -->
  <defs>
    <marker id="arrow" markerWidth="8" markerHeight="6" refX="8" refY="3" orient="auto">
      <path d="M0,0 L8,3 L0,6" fill="#30363d"/>
    </marker>
    <marker id="arrow-green" markerWidth="8" markerHeight="6" refX="8" refY="3" orient="auto">
      <path d="M0,0 L8,3 L0,6" fill="#238636"/>
    </marker>
    <marker id="arrow-red" markerWidth="8" markerHeight="6" refX="8" refY="3" orient="auto">
      <path d="M0,0 L8,3 L0,6" fill="#da3633"/>
    </marker>
    <marker id="arrow-purple" markerWidth="8" markerHeight="6" refX="8" refY="3" orient="auto">
      <path d="M0,0 L8,3 L0,6" fill="#8b5cf6"/>
    </marker>
  </defs>
</svg>
