<svg xmlns="http://www.w3.org/2000/svg" fill="none" viewBox="0 0 780 370"><style>text{font-family:-apple-system,BlinkMacSystemFont,&apos;Segoe UI&apos;,Helvetica,Arial,sans-serif}.title{font-size:13px;font-weight:700;fill:#e6edf3}.model-name,.tier-label{font-size:11px}.tier-label{fill:#8b949e}.model-name{font-family:&apos;SF Mono&apos;,&apos;Fira Code&apos;,monospace;fill:#e6edf3}.model-detail{font-size:10px;fill:#8b949e}.badge{font-size:9px;font-weight:600;fill:#fff}.arrow-line{stroke:#30363d;stroke-width:1;stroke-dasharray:4 3}</style><rect width="780" height="370" fill="#0d1117" rx="12"/><rect width="748" height="174" x="16" y="16" fill="#161b22" stroke="#30363d" stroke-width="1" rx="8"/><rect width="748" height="34" x="16" y="16" fill="#da3633" fill-opacity=".12" rx="8"/><rect width="748" height="12" x="16" y="38" fill="#da3633" fill-opacity=".12"/><text x="40" y="39" class="title">claude-ds</text><rect width="78" height="20" x="124" y="25" fill="#da3633" fill-opacity=".3" rx="10"/><text x="163" y="39" class="badge" text-anchor="middle">Pro mode</text><rect width="150" height="32" x="40" y="66" fill="#1f6feb" fill-opacity=".12" stroke="#1f6feb" stroke-width="1" rx="6"/><text x="115" y="87" class="tier-label" text-anchor="middle">Main conversation</text><line x1="190" x2="400" y1="82" y2="82" marker-end="url(#tier-arrow)" class="arrow-line"/><rect width="210" height="32" x="400" y="66" fill="#da3633" fill-opacity=".15" stroke="#da3633" stroke-width="1" rx="6"/><text x="505" y="87" class="model-name" text-anchor="middle">deepseek-v4-pro[1m]</text><rect width="64" height="22" x="624" y="70" fill="#238636" fill-opacity=".2" stroke="#238636" stroke-width=".5" rx="11"/><text x="656" y="85" class="model-detail" text-anchor="middle">1M ctx</text><rect width="150" height="32" x="40" y="110" fill="#30363d" fill-opacity=".5" stroke="#30363d" stroke-width="1" rx="6"/><text x="115" y="131" class="tier-label" text-anchor="middle">Sonnet tier</text><line x1="190" x2="400" y1="126" y2="126" marker-end="url(#tier-arrow)" class="arrow-line"/><rect width="210" height="72" x="400" y="104" fill="#f0883e" fill-opacity=".12" stroke="#f0883e" stroke-width="1" rx="6"/><text x="505" y="136" class="model-name" text-anchor="middle">deepseek-v4-flash</text><text x="505" y="154" class="model-detail" text-anchor="middle">200K ctx -- cost savings</text><rect width="150" height="32" x="40" y="152" fill="#30363d" fill-opacity=".5" stroke="#30363d" stroke-width="1" rx="6"/><text x="115" y="173" class="tier-label" text-anchor="middle">Haiku / Small / Sub</text><line x1="190" x2="400" y1="168" y2="152" marker-end="url(#tier-arrow)" class="arrow-line"/><rect width="84" height="22" x="624" y="118" fill="#f0883e" fill-opacity=".2" stroke="#f0883e" stroke-width=".5" rx="11"/><text x="666" y="133" class="model-detail" text-anchor="middle">14 internal refs</text><rect width="748" height="96" x="16" y="208" fill="#161b22" stroke="#30363d" stroke-width="1" rx="8"/><rect width="748" height="34" x="16" y="208" fill="#f0883e" fill-opacity=".1" rx="8"/><rect width="748" height="12" x="16" y="230" fill="#f0883e" fill-opacity=".1"/><text x="40" y="231" class="title">claude-ds-flash</text><rect width="88" height="20" x="164" y="217" fill="#f0883e" fill-opacity=".3" rx="10"/><text x="208" y="231" class="badge" text-anchor="middle">Flash mode</text><rect width="150" height="32" x="40" y="256" fill="#30363d" fill-opacity=".5" stroke="#30363d" stroke-width="1" rx="6"/><text x="115" y="277" class="tier-label" text-anchor="middle">All tiers</text><line x1="190" x2="400" y1="272" y2="272" marker-end="url(#tier-arrow)" class="arrow-line"/><rect width="210" height="32" x="400" y="256" fill="#f0883e" fill-opacity=".12" stroke="#f0883e" stroke-width="1" rx="6"/><text x="505" y="277" class="model-name" text-anchor="middle">deepseek-v4-flash</text><rect width="108" height="22" x="624" y="260" fill="#238636" fill-opacity=".15" stroke="#238636" stroke-width=".5" rx="11"/><text x="678" y="275" class="model-detail" text-anchor="middle">maximum savings</text><rect width="748" height="34" x="16" y="322" fill="#1f6feb" fill-opacity=".06" stroke="#1f6feb" stroke-width=".5" rx="6"/><text x="40" y="344" class="model-detail">Context: V4 defaults to 200K tokens. The [1m] suffix extends to 1M tokens (same per-token price, only unlocks the limit).</text><defs><marker id="tier-arrow" markerHeight="5" markerWidth="6" orient="auto" refX="6" refY="2.5"><path fill="#30363d" d="M0,0 L6,2.5 L0,5"/></marker></defs></svg>